<svg 
    version="1.1" 
    id="artboard_3" 
    xmlns="http://www.w3.org/2000/svg" 
    xmlns:xlink="http://www.w3.org/1999/xlink" 
    viewBox="430 285 301.9 295.3"  
    xml:space="preserve"
>
    <style type="text/css">
        .st0{fill:#898B8E;}
        .st1{fill:#D03439;}
        .st2{fill:#243E8D;}
        .st3{fill:#293C98;}
        .st4{fill:#373A36;}
        .st5{fill:#FFFFFF;}
        .st6{font-family:'MyriadPro-Regular';}
        .st7{font-size:16.5819px;}
    </style>
	<g id="XMLID_62_">
		<path id="XMLID_66_" class="st0" d="M662.9,520.6l-45,29.5c0.4,0.5,0.8,1.1,1.1,1.7l45.1-29.5C663.6,521.8,663.2,521.2,662.9,520.6z"/>
		<path id="XMLID_69_" class="st0" d="M662.3,519.3c-0.2-0.6-0.5-1.3-0.6-1.9l-53.2,16l-7.3-51.5l0.6-0.7l60.5,29.4c0.2-0.6,0.5-1.2,0.9-1.8l-60-29.1l84.8-99.4c-0.9-0.8-1.6-1.7-2.1-2.7l-85.3,100l-10.4-72.8l95.2-28.1c-0.3-0.6-0.4-1.3-0.6-1.9l-95,28.1l-2-13.7l0.4-0.5l-0.5-0.4l-6.6-46.6l34,9.9l-5,6.2l2.1,1.7l5.7-7l66.8,19.4c0.1-1.1,0.5-2.2,1-3.2l-65.4-19l0-0.1l-2.1-1.7l-0.8,0.9l-36.8-10.7l-4.8-33.8c-0.6,0.2-1.3,0.3-2,0.3l4.7,32.8l-13-3.8l6.8-29.1c-0.7-0.1-1.3-0.2-2-0.5l-6.8,29l-54.9-16c-0.1,1.2-0.4,2.3-0.9,3.2l55.1,16l-18.8,80.2l-30.8,9.1l-8.6-7.7l-1.8,2l7.4,6.6l-24.8,7.3l15.8-109.7c-0.7,0-1.4-0.1-2-0.3l-11.4,79l-8.4-7.5l-1.8,2l9.6,8.6l0.2-0.2l-4.1,28.7l-34.7,10.3c0.3,0.6,0.5,1.3,0.6,1.9l33.8-10l-9.6,66.5c0.7,0,1.4,0.1,2,0.3l9.7-67.4l26.9-7.9l0.4,0.4l0.6-0.7l30.5-9l-4.3,18.4c0.7,0.1,1.3,0.2,2,0.5l4.6-19.5l23.3-6.9l0.6,0.5l0.7-0.9l17.9-5.3l10.3,72.1l-49.9-24.2c-0.2,0.6-0.5,1.2-0.9,1.8l51,24.7l-53.8,63c0.9,0.6,1.8,1.4,2.6,2.2l52-60.9l7.1,50L551,550.8c0.2,0.6,0.4,1.3,0.5,2l55.3-16.7l1.6,10.9c0.6-0.2,1.3-0.3,2-0.3l-1.6-11.2L662.3,519.3z M572.5,407.8l5.1-6.3l-2.1-1.7l-7.6,9.3l-21.7,6.4l18.6-78.9l14.3,4.1l6.7,46.6l-7.5,9.3l2.1,1.7l6-7.3l1.7,12.2L572.5,407.8z"/>
		<path id="XMLID_70_" class="st0" d="M601.4,557c0-0.3-0.1-0.7-0.1-1c0-0.3,0-0.7,0.1-1h-49.6c0,0.3,0.1,0.7,0.1,1c0,0.3,0,0.7-0.1,1H601.4z"/>
		<path id="XMLID_71_" class="st0" d="M508.5,315.2l56.4-16.7c-0.3-0.6-0.4-1.3-0.6-1.9L508,313.3C508.2,313.9,508.4,314.6,508.5,315.2z"/>
		<path id="XMLID_72_" class="st0" d="M695.1,382.8l6.3,44.4c0.7-0.1,1.3-0.2,2-0.3l-6.3-44.4C696.4,382.6,695.7,382.7,695.1,382.8z"/>
		<path id="XMLID_73_" class="st0" d="M447.7,446.8c-0.1-0.7-0.3-1.3-0.6-1.9"/>
		<path id="XMLID_74_" class="st0" d="M528.2,456.6l-47.9,49c0.5,0.4,1,0.9,1.4,1.4l47.9-49C529.1,457.6,528.6,457.2,528.2,456.6z"/>		
        <rect id="XMLID_99_" x="464.2" y="387.8" transform="matrix(0.7452 0.6668 -0.6668 0.7452 379.4177 -214.6919)" class="st0" width="12.8" height="2.7"/>		
        <rect id="XMLID_108_" x="489.4" y="410.3" transform="matrix(-0.7452 -0.6668 0.6668 -0.7452 590.7908 1049.0122)" class="st0" width="12.8" height="2.7"/>		
        <rect id="XMLID_109_" x="514.5" y="432.8" transform="matrix(-0.7452 -0.6668 0.6668 -0.7452 619.6813 1105.0654)" class="st0" width="12.8" height="2.7"/>		
        <rect id="XMLID_110_" x="603.2" y="360" transform="matrix(-0.7749 -0.6321 0.6321 -0.7749 841.3433 1032.4009)" class="st0" width="2.7" height="12.8"/>		
        <rect id="XMLID_113_" x="560.5" y="412.3" transform="matrix(-0.7749 -0.6321 0.6321 -0.7749 732.5449 1098.2782)" class="st0" width="2.7" height="12.8"/>		
        <rect id="XMLID_116_" x="624.5" y="333.8" transform="matrix(0.7749 0.6321 -0.6321 0.7749 355.9278 -318.9911)" class="st0" width="2.7" height="12.8"/>		
        <rect id="XMLID_120_" x="592.5" y="373.1" transform="matrix(-0.7748 -0.6322 0.6322 -0.7748 814.0237 1048.9102)" class="st0" width="2.7" height="12.8"/>		
        <rect id="XMLID_125_" x="549.8" y="425.4" transform="matrix(-0.7749 -0.6321 0.6321 -0.7749 705.326 1114.7528)" class="st0" width="2.7" height="12.8"/>		
        <rect id="XMLID_130_" x="535.6" y="464.3" transform="matrix(0.9999 1.427679e-002 -1.427679e-002 0.9999 6.7751 -7.6184)" class="st0" width="2.7" height="12.8"/>		
        <rect id="XMLID_134_" x="534.9" y="514.9" transform="matrix(-0.9999 -1.427679e-002 1.427679e-002 -0.9999 1065.0299 1050.2898)" class="st0" width="2.7" height="12.8"/>		
        <rect id="XMLID_135_" x="535.2" y="498.1" transform="matrix(-0.9999 -1.427679e-002 1.427679e-002 -0.9999 1065.7506 1016.545)" class="st0" width="2.7" height="12.8"/>
		<path id="XMLID_137_" class="st0" d="M460.3,381.7l1.6,1.4l1.8-2l-1.6-1.4C461.6,380.5,461,381.1,460.3,381.7z"/>
		<path id="XMLID_138_" class="st0" d="M654,324.7c-0.5,0.5-1,0.9-1.5,1.3l34.9,39.8c0.5-0.5,1-0.9,1.5-1.3L654,324.7z"/>
		<rect id="XMLID_139_" x="535.4" y="481.2" transform="matrix(-0.9999 -1.427679e-002 1.427679e-002 -0.9999 1066.4729 982.8007)" class="st0" width="2.7" height="12.8"/>
		<path id="XMLID_141_" class="st0" d="M636.7,324.8l-5.3,6.5l2.1,1.7l5.3-6.5C638,326,637.3,325.4,636.7,324.8z"/>
		<path id="XMLID_143_" class="st0" d="M535.8,539.9c0.5,0,1.1,0,1.6,0.1l0.1-8.1l-2.7,0l-0.1,8.2C535,539.9,535.4,539.9,535.8,539.9z"/>
		<circle id="XMLID_144_" class="st1" cx="535.8" cy="556" r="14.7"/>
		<circle id="XMLID_145_" class="st1" cx="694.7" cy="372.7" r="8.7"/>
		<circle id="XMLID_146_" class="st1" cx="610.7" cy="556" r="7.9"/>
		<circle id="XMLID_147_" class="st1" cx="573.5" cy="295" r="7.9"/>
		<circle id="XMLID_148_" class="st1" cx="537.3" cy="448.8" r="10.7"/>
		<circle id="XMLID_149_" class="st2" cx="705.3" cy="447.5" r="19.3"/>
		<circle id="XMLID_150_" class="st2" cx="673.5" cy="514.9" r="10.7"/>
		<circle id="XMLID_151_" class="st2" cx="472.5" cy="514.9" r="10.7"/>
		<circle id="XMLID_152_" class="st2" cx="645.3" cy="316.4" r="10.7"/>
		<circle id="XMLID_153_" class="st2" cx="452.3" cy="372.7" r="10.7"/>
		<circle id="XMLID_154_" class="st2" cx="501.1" cy="316.4" r="6.1"/>
		<circle id="XMLID_155_" class="st2" cx="441.6" cy="447.5" r="6.1"/>
        <path id="XMLID_156_" class="st4" d="M507.3,316.4c0,2-1,3.8-2.5,5h131.1c-0.8-1.5-1.2-3.2-1.2-5s0.4-3.5,1.2-5H504.8C506.3,312.5,507.3,314.3,507.3,316.4z"/>
        <path id="XMLID_157_" class="st4" d="M463,372.7c0,2.9-1.2,5.5-3,7.4L686,447c0.1-3.5,1.1-6.7,2.8-9.5l-226-66.8C463,371.4,463,372,463,372.7z"/>
        <path id="XMLID_158_" class="st4" d="M662.8,514.9c0-1.8,0.4-3.5,1.2-5H482c0.8,1.5,1.2,3.2,1.2,5c0,1.8-0.4,3.5-1.2,5l182,0C663.2,518.4,662.8,516.7,662.8,514.9z"/>
        <path id="XMLID_159_" class="st4" d="M692.8,462.3l-19.8,41.9c0.1,0,0.3,0,0.4,0c3.5,0,6.6,1.7,8.5,4.2l19.8-41.9C698.4,465.9,695.4,464.4,692.8,462.3z"/>
        <path id="XMLID_160_" class="st4" d="M454.8,362.3c3.4,0.8,6.2,3.3,7.5,6.5l40.2-46.5c-0.4,0.1-0.9,0.2-1.4,0.2c-3.4,0-6.1-2.7-6.1-6.1c0-0.2,0-0.3,0-0.5L454.8,362.3z"/>
        <path id="XMLID_161_" class="st4" d="M472.5,504.2c0.3,0,0.6,0,0.8,0l-25.7-55.9c-0.4,3-3,5.3-6.1,5.3c-1.2,0-2.4-0.4-3.4-1l25.7,55.9C465.9,505.9,469,504.2,472.5,504.2z"/>
        <path id="XMLID_164_" class="st5" d="M705.3,426.8c-11.4,0-20.7,9.3-20.7,20.7c0,11.4,9.3,20.7,20.7,20.7c11.4,0,20.7-9.3,20.7-20.7C726,436.1,716.7,426.8,705.3,426.8z M705.3,466.8c-10.7,0-19.3-8.7-19.3-19.3s8.7-19.3,19.3-19.3c10.7,0,19.3,8.7,19.3,19.3S716,466.8,705.3,466.8z"/>
        <path id="XMLID_167_" class="st5" d="M535.8,539.9c-8.9,0-16.1,7.2-16.1,16.1c0,8.9,7.2,16.1,16.1,16.1c8.9,0,16.1-7.2,16.1-16.1C551.9,547.1,544.6,539.9,535.8,539.9z M535.8,570.7c-8.1,0-14.7-6.6-14.7-14.7c0-8.1,6.6-14.7,14.7-14.7c8.1,0,14.7,6.6,14.7,14.7C550.5,564.1,543.9,570.7,535.8,570.7z"/>
        <path id="XMLID_170_" class="st5" d="M673.5,502.8c-6.6,0-12.1,5.4-12.1,12.1c0,6.6,5.4,12.1,12.1,12.1c6.6,0,12.1-5.4,12.1-12.1C685.5,508.2,680.1,502.8,673.5,502.8z M673.5,525.6c-5.9,0-10.7-4.8-10.7-10.7c0-5.9,4.8-10.7,10.7-10.7c5.9,0,10.7,4.8,10.7,10.7C684.2,520.8,679.4,525.6,673.5,525.6z"/>
        <path id="XMLID_173_" class="st5" d="M472.5,502.8c-6.6,0-12.1,5.4-12.1,12.1c0,6.6,5.4,12.1,12.1,12.1c6.6,0,12.1-5.4,12.1-12.1C484.6,508.2,479.2,502.8,472.5,502.8z M472.5,525.6c-5.9,0-10.7-4.8-10.7-10.7c0-5.9,4.8-10.7,10.7-10.7c5.9,0,10.7,4.8,10.7,10.7C483.3,520.8,478.5,525.6,472.5,525.6z"/>
        <path id="XMLID_176_" class="st5" d="M645.3,304.3c-6.6,0-12.1,5.4-12.1,12.1c0,6.6,5.4,12.1,12.1,12.1c6.6,0,12.1-5.4,12.1-12.1C657.4,309.7,652,304.3,645.3,304.3z M645.3,327.1c-5.9,0-10.7-4.8-10.7-10.7c0-5.9,4.8-10.7,10.7-10.7s10.7,4.8,10.7,10.7C656,322.3,651.2,327.1,645.3,327.1z"/>
        <path id="XMLID_179_" class="st5" d="M464.4,372.7c0-6.6-5.4-12.1-12.1-12.1c-6.6,0-12.1,5.4-12.1,12.1c0,6.6,5.4,12.1,12.1,12.1C459,384.8,464.4,379.4,464.4,372.7z M452.3,383.5c-5.9,0-10.7-4.8-10.7-10.7c0-5.9,4.8-10.7,10.7-10.7s10.7,4.8,10.7,10.7C463,378.7,458.2,383.5,452.3,383.5z"/>
        <path id="XMLID_182_" class="st5" d="M694.7,382.8c5.5,0,10-4.5,10-10c0-5.5-4.5-10-10-10c-5.5,0-10,4.5-10,10C684.6,378.3,689.1,382.8,694.7,382.8z M694.7,364.1c4.8,0,8.7,3.9,8.7,8.7c0,4.8-3.9,8.7-8.7,8.7c-4.8,0-8.7-3.9-8.7-8.7C686,367.9,689.9,364.1,694.7,364.1z"/>
        <path id="XMLID_186_" class="st5" d="M610.7,546.7c-5.1,0-9.3,4.2-9.3,9.3c0,5.1,4.2,9.3,9.3,9.3c5.1,0,9.3-4.2,9.3-9.3C620,550.8,615.8,546.7,610.7,546.7z M610.7,563.9c-4.4,0-7.9-3.6-7.9-7.9c0-4.4,3.6-7.9,7.9-7.9c4.4,0,7.9,3.6,7.9,7.9C618.6,560.4,615.1,563.9,610.7,563.9z"/>
        <path id="XMLID_190_" class="st5" d="M573.5,285.7c-5.1,0-9.3,4.2-9.3,9.3c0,5.1,4.2,9.3,9.3,9.3s9.3-4.2,9.3-9.3C582.7,289.9,578.6,285.7,573.5,285.7z M573.5,302.9c-4.4,0-7.9-3.6-7.9-7.9c0-4.4,3.6-7.9,7.9-7.9s7.9,3.6,7.9,7.9C581.4,299.4,577.8,302.9,573.5,302.9z"/>
        <path id="XMLID_196_" class="st5" d="M441.6,440c-4.1,0-7.5,3.4-7.5,7.5s3.4,7.5,7.5,7.5c4.1,0,7.5-3.4,7.5-7.5S445.7,440,441.6,440z M441.6,453.6c-3.4,0-6.1-2.7-6.1-6.1c0-3.4,2.7-6.1,6.1-6.1c3.4,0,6.1,2.7,6.1,6.1C447.8,450.9,445,453.6,441.6,453.6z"/>
        <path id="XMLID_199_" class="st5" d="M501.1,308.9c-4.1,0-7.5,3.4-7.5,7.5c0,4.1,3.4,7.5,7.5,7.5s7.5-3.4,7.5-7.5C508.6,312.2,505.3,308.9,501.1,308.9z M501.1,322.5c-3.4,0-6.1-2.7-6.1-6.1c0-3.4,2.7-6.1,6.1-6.1c3.4,0,6.1,2.7,6.1,6.1C507.3,319.8,504.5,322.5,501.1,322.5z"/>
        <path id="XMLID_234_" class="st5" d="M537.3,438.1c5.9,0,10.7,4.8,10.7,10.7s-4.8,10.7-10.7,10.7c-5.9,0-10.7-4.8-10.7-10.7S531.4,438.1,537.3,438.1 M537.3,436.7c-6.6,0-12.1,5.4-12.1,12.1c0,6.6,5.4,12.1,12.1,12.1c6.6,0,12.1-5.4,12.1-12.1C549.4,442.1,543.9,436.7,537.3,436.7z"/>
	</g>
</svg>
