<?xml version="1.0" encoding="utf-8"?>
<!-- Generator: Adobe Illustrator 19.0.0, SVG Export Plug-In . SVG Version: 6.00 Build 0)  -->
<svg version="1.1" id="artboard_3" xmlns="http://www.w3.org/2000/svg" xmlns:xlink="http://www.w3.org/1999/xlink" x="0px" y="0px"
	 viewBox="0 0 841.9 595.3" style="enable-background:new 0 0 841.9 595.3;" xml:space="preserve">
<style type="text/css">
	.st0{fill:#898B8E;}
	.st1{fill:#D03439;}
	.st2{fill:#243E8D;}
	.st3{fill:#293C98;}
	.st4{fill:#373A36;}
	.st5{fill:#FFFFFF;}
	.st6{font-family:'MyriadPro-Regular';}
	.st7{font-size:16.5819px;}
</style>
<g id="XMLID_107_">
	<g id="XMLID_111_">
		<path id="XMLID_257_" class="st0" d="M116,127.3l-19.7,12.8c0.2,0.2,0.3,0.5,0.5,0.7l19.7-12.9C116.3,127.8,116.2,127.6,116,127.3
			z"/>
		<path id="XMLID_254_" class="st0" d="M115.8,126.7c-0.1-0.3-0.2-0.6-0.3-0.8l-23.2,7l-3.2-22.5l0.3-0.3l26.4,12.8
			c0.1-0.3,0.2-0.5,0.4-0.8l-26.2-12.7l37-43.4c-0.4-0.3-0.7-0.7-0.9-1.2l-37.2,43.6l-4.5-31.8l41.6-12.3c-0.1-0.3-0.2-0.6-0.2-0.8
			L84.1,75.8l-0.9-6l0.2-0.2l-0.2-0.2l-2.9-20.3l14.8,4.3L93,56.1l0.9,0.7l2.5-3.1l29.1,8.5c0.1-0.5,0.2-1,0.4-1.4l-28.6-8.3l0,0
			l-0.9-0.7l-0.3,0.4l-16.1-4.7L78,32.8c-0.3,0.1-0.6,0.1-0.9,0.1l2,14.3l-5.7-1.6l3-12.7c-0.3,0-0.6-0.1-0.9-0.2l-3,12.7l-24-7
			c0,0.5-0.2,1-0.4,1.4l24,7l-8.2,35l-13.4,4l-3.8-3.4l-0.8,0.9l3.2,2.9l-10.8,3.2l6.9-47.9c-0.3,0-0.6,0-0.9-0.1l-5,34.5l-3.6-3.3
			l-0.8,0.9l4.2,3.7l0.1-0.1l-1.8,12.5l-15.1,4.5c0.1,0.3,0.2,0.6,0.2,0.8l14.8-4.4l-4.2,29c0.3,0,0.6,0.1,0.9,0.1l4.2-29.4
			l11.7-3.5l0.2,0.2l0.3-0.3l13.3-3.9l-1.9,8c0.3,0,0.6,0.1,0.9,0.2l2-8.5l10.2-3l0.3,0.2l0.3-0.4l7.8-2.3l4.5,31.4L66.1,97.9
			c-0.1,0.3-0.2,0.5-0.4,0.8L88,109.4l-23.5,27.5c0.4,0.3,0.8,0.6,1.1,1l22.7-26.6l3.1,21.8l-24.2,7.3c0.1,0.3,0.2,0.6,0.2,0.9
			l24.1-7.3l0.7,4.8c0.3-0.1,0.6-0.1,0.9-0.1l-0.7-4.9L115.8,126.7z M76.6,78.1l2.2-2.7l-0.9-0.7l-3.3,4.1l-9.5,2.8L73.2,47l6.2,1.8
			l2.9,20.4l-3.3,4l0.9,0.7l2.6-3.2l0.8,5.3L76.6,78.1z"/>
		<path id="XMLID_253_" class="st0" d="M89.2,143.2c0-0.1,0-0.3,0-0.4c0-0.1,0-0.3,0-0.4H67.5c0,0.1,0,0.3,0,0.4c0,0.1,0,0.3,0,0.4
			H89.2z"/>
		<path id="XMLID_252_" class="st0" d="M48.7,37.7l24.6-7.3c-0.1-0.3-0.2-0.6-0.2-0.8l-24.6,7.3C48.5,37.1,48.6,37.4,48.7,37.7z"/>
		<path id="XMLID_251_" class="st0" d="M130.1,67.2l2.8,19.4c0.3-0.1,0.6-0.1,0.9-0.1L130.9,67C130.6,67.1,130.4,67.1,130.1,67.2z"
			/>
		<path id="XMLID_250_" class="st0" d="M22.1,95.1c0-0.3-0.1-0.6-0.3-0.8"/>
		<path id="XMLID_249_" class="st0" d="M57.2,99.4l-20.9,21.4c0.2,0.2,0.4,0.4,0.6,0.6L57.9,100C57.6,99.8,57.4,99.6,57.2,99.4z"/>
		
			<rect id="XMLID_248_" x="29.3" y="69.4" transform="matrix(0.7452 0.6668 -0.6668 0.7452 54.8292 -3.6102)" class="st0" width="5.6" height="1.2"/>
		
			<rect id="XMLID_247_" x="40.3" y="79.2" transform="matrix(-0.7452 -0.6668 0.6668 -0.7452 22.0572 167.9494)" class="st0" width="5.6" height="1.2"/>
		
			<rect id="XMLID_246_" x="51.3" y="89" transform="matrix(-0.7452 -0.6668 0.6668 -0.7452 34.6621 192.4054)" class="st0" width="5.6" height="1.2"/>
		
			<rect id="XMLID_245_" x="90" y="57.2" transform="matrix(-0.7749 -0.6321 0.6321 -0.7749 122.7669 163.7541)" class="st0" width="1.2" height="5.6"/>
		
			<rect id="XMLID_244_" x="71.3" y="80" transform="matrix(-0.7749 -0.6321 0.6321 -0.7749 75.2982 192.4964)" class="st0" width="1.2" height="5.6"/>
		
			<rect id="XMLID_243_" x="99.3" y="45.8" transform="matrix(0.7749 0.6321 -0.6321 0.7749 53.1982 -52.1719)" class="st0" width="1.2" height="5.6"/>
		
			<rect id="XMLID_242_" x="85.3" y="62.9" transform="matrix(-0.7748 -0.6322 0.6322 -0.7748 110.8811 170.9443)" class="st0" width="1.2" height="5.6"/>
		
			<rect id="XMLID_241_" x="66.7" y="85.7" transform="matrix(-0.7749 -0.6321 0.6321 -0.7749 63.4283 199.6821)" class="st0" width="1.2" height="5.6"/>
		
			<rect id="XMLID_240_" x="60.5" y="102.7" transform="matrix(0.9999 1.427679e-002 -1.427679e-002 0.9999 1.5129 -0.8613)" class="st0" width="1.2" height="5.6"/>
		
			<rect id="XMLID_239_" x="60.2" y="124.8" transform="matrix(-0.9999 -1.427679e-002 1.427679e-002 -0.9999 119.7113 256.1003)" class="st0" width="1.2" height="5.6"/>
		
			<rect id="XMLID_238_" x="60.3" y="117.5" transform="matrix(-0.9999 -1.427679e-002 1.427679e-002 -0.9999 120.0258 241.3774)" class="st0" width="1.2" height="5.6"/>
		<path id="XMLID_237_" class="st0" d="M27.6,66.7l0.7,0.6l0.8-0.9l-0.7-0.6C28.2,66.2,27.9,66.4,27.6,66.7z"/>
		<path id="XMLID_236_" class="st0" d="M112.1,41.8c-0.2,0.2-0.4,0.4-0.7,0.6l15.2,17.4c0.2-0.2,0.4-0.4,0.7-0.6L112.1,41.8z"/>
		
			<rect id="XMLID_235_" x="60.4" y="110.1" transform="matrix(-0.9999 -1.427679e-002 1.427679e-002 -0.9999 120.3409 226.6548)" class="st0" width="1.2" height="5.6"/>
		<path id="XMLID_232_" class="st0" d="M104.6,41.9l-2.3,2.8l0.9,0.7l2.3-2.8C105.2,42.4,104.9,42.1,104.6,41.9z"/>
		<path id="XMLID_231_" class="st0" d="M60.6,135.7c0.2,0,0.5,0,0.7,0l0.1-3.6l-1.2,0l-0.1,3.6C60.2,135.7,60.4,135.7,60.6,135.7z"
			/>
		<circle id="XMLID_230_" class="st1" cx="60.6" cy="142.7" r="6.4"/>
		<circle id="XMLID_229_" class="st1" cx="129.9" cy="62.8" r="3.8"/>
		<circle id="XMLID_228_" class="st1" cx="93.2" cy="142.7" r="3.5"/>
		<circle id="XMLID_227_" class="st1" cx="77" cy="28.9" r="3.5"/>
		<circle id="XMLID_226_" class="st1" cx="61.2" cy="96" r="4.7"/>
		<circle id="XMLID_225_" class="st2" cx="134.5" cy="95.4" r="8.4"/>
		<circle id="XMLID_224_" class="st2" cx="120.6" cy="124.8" r="4.7"/>
		<circle id="XMLID_223_" class="st2" cx="33" cy="124.8" r="4.7"/>
		<circle id="XMLID_222_" class="st2" cx="108.3" cy="38.2" r="4.7"/>
		<circle id="XMLID_221_" class="st2" cx="24.1" cy="62.8" r="4.7"/>
		<circle id="XMLID_220_" class="st3" cx="45.4" cy="38.2" r="2.7"/>
		<circle id="XMLID_219_" class="st2" cx="19.5" cy="95.4" r="2.7"/>
		<path id="XMLID_218_" class="st4" d="M48.1,38.2c0,0.9-0.4,1.7-1.1,2.2h57.2c-0.3-0.6-0.5-1.4-0.5-2.2s0.2-1.5,0.5-2.2H47
			C47.7,36.5,48.1,37.3,48.1,38.2z"/>
		<path id="XMLID_217_" class="st4" d="M28.8,62.8c0,1.3-0.5,2.4-1.3,3.2l98.6,29.1c0-1.5,0.5-2.9,1.2-4.1L28.7,61.9
			C28.8,62.2,28.8,62.5,28.8,62.8z"/>
		<path id="XMLID_216_" class="st4" d="M116,124.8c0-0.8,0.2-1.5,0.5-2.2H37.1c0.3,0.6,0.5,1.4,0.5,2.2c0,0.8-0.2,1.5-0.5,2.2
			l79.4,0C116.2,126.3,116,125.6,116,124.8z"/>
		<path id="XMLID_215_" class="st4" d="M129.1,101.9l-8.6,18.3c0.1,0,0.1,0,0.2,0c1.5,0,2.9,0.7,3.7,1.9l8.6-18.3
			C131.5,103.4,130.2,102.8,129.1,101.9z"/>
		<path id="XMLID_214_" class="st4" d="M25.2,58.2c1.5,0.4,2.7,1.4,3.3,2.8L46,40.8c-0.2,0-0.4,0.1-0.6,0.1c-1.5,0-2.7-1.2-2.7-2.7
			c0-0.1,0-0.1,0-0.2L25.2,58.2z"/>
		<path id="XMLID_213_" class="st4" d="M33,120.1c0.1,0,0.2,0,0.4,0L22.1,95.8c-0.2,1.3-1.3,2.3-2.7,2.3c-0.5,0-1-0.2-1.5-0.4
			L29.2,122C30.1,120.9,31.4,120.1,33,120.1z"/>
		<path id="XMLID_210_" class="st5" d="M134.5,86.4c-5,0-9,4-9,9s4,9,9,9c5,0,9-4,9-9S139.5,86.4,134.5,86.4z M134.5,103.8
			c-4.7,0-8.4-3.8-8.4-8.4s3.8-8.4,8.4-8.4c4.7,0,8.4,3.8,8.4,8.4S139.2,103.8,134.5,103.8z"/>
		<path id="XMLID_207_" class="st5" d="M60.6,135.7c-3.9,0-7,3.1-7,7c0,3.9,3.1,7,7,7c3.9,0,7-3.1,7-7
			C67.6,138.9,64.4,135.7,60.6,135.7z M60.6,149.2c-3.6,0-6.4-2.9-6.4-6.4c0-3.6,2.9-6.4,6.4-6.4c3.6,0,6.4,2.9,6.4,6.4
			C67,146.3,64.1,149.2,60.6,149.2z"/>
		<path id="XMLID_204_" class="st5" d="M120.6,119.5c-2.9,0-5.3,2.4-5.3,5.3s2.4,5.3,5.3,5.3c2.9,0,5.3-2.4,5.3-5.3
			S123.5,119.5,120.6,119.5z M120.6,129.5c-2.6,0-4.7-2.1-4.7-4.7c0-2.6,2.1-4.7,4.7-4.7c2.6,0,4.7,2.1,4.7,4.7
			C125.3,127.4,123.2,129.5,120.6,129.5z"/>
		<path id="XMLID_201_" class="st5" d="M33,119.5c-2.9,0-5.3,2.4-5.3,5.3s2.4,5.3,5.3,5.3c2.9,0,5.3-2.4,5.3-5.3
			S35.9,119.5,33,119.5z M33,129.5c-2.6,0-4.7-2.1-4.7-4.7c0-2.6,2.1-4.7,4.7-4.7c2.6,0,4.7,2.1,4.7,4.7
			C37.6,127.4,35.6,129.5,33,129.5z"/>
		<path id="XMLID_191_" class="st5" d="M108.3,32.9c-2.9,0-5.3,2.4-5.3,5.3c0,2.9,2.4,5.3,5.3,5.3c2.9,0,5.3-2.4,5.3-5.3
			C113.6,35.3,111.2,32.9,108.3,32.9z M108.3,42.9c-2.6,0-4.7-2.1-4.7-4.7c0-2.6,2.1-4.7,4.7-4.7s4.7,2.1,4.7,4.7
			C113,40.8,110.9,42.9,108.3,42.9z"/>
		<path id="XMLID_142_" class="st5" d="M29.4,62.8c0-2.9-2.4-5.3-5.3-5.3c-2.9,0-5.3,2.4-5.3,5.3c0,2.9,2.4,5.3,5.3,5.3
			C27,68.1,29.4,65.7,29.4,62.8z M24.1,67.5c-2.6,0-4.7-2.1-4.7-4.7c0-2.6,2.1-4.7,4.7-4.7s4.7,2.1,4.7,4.7
			C28.8,65.4,26.7,67.5,24.1,67.5z"/>
		<path id="XMLID_133_" class="st5" d="M129.9,67.2c2.4,0,4.4-2,4.4-4.4c0-2.4-2-4.4-4.4-4.4c-2.4,0-4.4,2-4.4,4.4
			C125.5,65.2,127.5,67.2,129.9,67.2z M129.9,59c2.1,0,3.8,1.7,3.8,3.8c0,2.1-1.7,3.8-3.8,3.8c-2.1,0-3.8-1.7-3.8-3.8
			C126.1,60.7,127.8,59,129.9,59z"/>
		<path id="XMLID_128_" class="st5" d="M93.2,138.7c-2.2,0-4.1,1.8-4.1,4.1c0,2.2,1.8,4.1,4.1,4.1c2.2,0,4.1-1.8,4.1-4.1
			C97.3,140.5,95.5,138.7,93.2,138.7z M93.2,146.2c-1.9,0-3.5-1.6-3.5-3.5c0-1.9,1.6-3.5,3.5-3.5c1.9,0,3.5,1.6,3.5,3.5
			C96.7,144.6,95.1,146.2,93.2,146.2z"/>
		<path id="XMLID_124_" class="st5" d="M77,24.8c-2.2,0-4.1,1.8-4.1,4.1c0,2.2,1.8,4.1,4.1,4.1s4.1-1.8,4.1-4.1
			C81,26.6,79.2,24.8,77,24.8z M77,32.3c-1.9,0-3.5-1.6-3.5-3.5c0-1.9,1.6-3.5,3.5-3.5s3.5,1.6,3.5,3.5C80.5,30.8,78.9,32.3,77,32.3
			z"/>
		<path id="XMLID_121_" class="st5" d="M19.5,92.1c-1.8,0-3.3,1.5-3.3,3.3s1.5,3.3,3.3,3.3c1.8,0,3.3-1.5,3.3-3.3
			S21.3,92.1,19.5,92.1z M19.5,98.1c-1.5,0-2.7-1.2-2.7-2.7c0-1.5,1.2-2.7,2.7-2.7c1.5,0,2.7,1.2,2.7,2.7
			C22.2,96.9,21,98.1,19.5,98.1z"/>
		<path id="XMLID_117_" class="st2" d="M45.4,34.9c-1.8,0-3.3,1.5-3.3,3.3c0,1.8,1.5,3.3,3.3,3.3c1.8,0,3.3-1.5,3.3-3.3
			C48.7,36.4,47.2,34.9,45.4,34.9z M45.4,40.9c-1.5,0-2.7-1.2-2.7-2.7c0-1.5,1.2-2.7,2.7-2.7c1.5,0,2.7,1.2,2.7,2.7
			C48.1,39.7,46.9,40.9,45.4,40.9z"/>
		<path id="XMLID_112_" class="st5" d="M61.2,91.3c2.6,0,4.7,2.1,4.7,4.7c0,2.6-2.1,4.7-4.7,4.7c-2.6,0-4.7-2.1-4.7-4.7
			C56.5,93.4,58.6,91.3,61.2,91.3 M61.2,90.7c-2.9,0-5.3,2.4-5.3,5.3c0,2.9,2.4,5.3,5.3,5.3c2.9,0,5.3-2.4,5.3-5.3
			C66.5,93.1,64.1,90.7,61.2,90.7z"/>
	</g>
</g>
<g id="XMLID_985_">
	<path id="XMLID_986_" d="M204.5,59.8c-3.2-4.5-8.9-6.7-14.7-6.7c-6.9,0-13.8,3.1-13.8,10.8c0,16.9,39.9,7.2,39.9,37.2
		c0,18.1-14.3,26.8-30.8,26.8c-10.5,0-20.7-3.2-27.6-11.4l11.3-10.9c3.7,5.6,10,8.8,16.6,8.8c6.9,0,14.7-3.8,14.7-11.5
		c0-18.4-39.9-7.8-39.9-37.9c0-17.3,15.4-25.4,31-25.4c8.8,0,17.6,2.5,24.1,8.7L204.5,59.8z"/>
	<path id="XMLID_988_" d="M298.8,95c0,20.3-14.6,33-33.8,33c-19.2,0-33.8-12.7-33.8-33V41.8h15v52.7c0,8.3,4.5,19.2,18.9,19.2
		c14.4,0,18.9-10.9,18.9-19.2V41.8h15V95z"/>
	<path id="XMLID_992_" d="M317.2,41.8h29.2c16.2,0,31.4,5.2,31.4,24.1c0,12.1-7,21-19.5,22.8l22.3,37.2h-18.1L343,90.2h-10.9v35.6
		h-15V41.8z M343.8,77.4c8.4,0,18.3-0.7,18.3-11.6c0-10-9.3-11.2-17-11.2h-12.9v22.8H343.8z"/>
	<path id="XMLID_995_" d="M392,41.8h29.2c16.2,0,31.4,5.2,31.4,24.1c0,12.1-7,21-19.5,22.8l22.3,37.2h-18.1l-19.5-35.6h-10.9v35.6
		h-15V41.8z M418.6,77.4c8.4,0,18.3-0.7,18.3-11.6c0-10-9.3-11.2-17-11.2h-12.9v22.8H418.6z"/>
	<path id="XMLID_1152_" d="M506.7,39.7c26.2-0.5,44.8,17.1,44.8,44.1c0,26.2-18.5,43.8-44.8,44.3c-25.9,0-44.4-17.6-44.4-43.8
		C462.3,57.2,480.8,39.7,506.7,39.7z M506.8,114.5c17.5,0,29-13.3,29-31.2c0-16.7-11.5-30-29-30c-17.3,0-28.9,13.3-28.9,30
		C478,101.2,489.5,114.5,506.8,114.5z"/>
	<path id="XMLID_1155_" d="M633.1,95c0,20.3-14.6,33-33.8,33c-19.2,0-33.8-12.7-33.8-33V41.8h15v52.7c0,8.3,4.5,19.2,18.9,19.2
		c14.4,0,18.9-10.9,18.9-19.2V41.8h15V95z"/>
	<path id="XMLID_1157_" d="M651.5,41.8h19.8l40.7,62.5h0.2V41.8h15v84.1h-19l-41.6-64.5h-0.2v64.5h-15V41.8z"/>
	<path id="XMLID_1159_" d="M746,41.8h33.1c22.1,0,42.8,13.5,42.8,42c0,28.7-24.3,42-44.5,42H746V41.8z M772.1,112.3
		c18.8,0,34.1-8.1,34.1-28.5c0-20.4-13.3-28.5-31.6-28.5H761v57H772.1z"/>
</g>
<g id="XMLID_1_">
	<g id="XMLID_2_">
		<path id="XMLID_106_" class="st0" d="M428.2,262.9l-19.7,12.9c0.2,0.2,0.3,0.5,0.5,0.7l19.7-12.9
			C428.5,263.4,428.3,263.2,428.2,262.9z"/>
		<path id="XMLID_103_" class="st0" d="M427.9,262.3c-0.1-0.3-0.2-0.6-0.3-0.8l-23.3,7l-3.2-22.5l0.3-0.3l26.4,12.8
			c0.1-0.3,0.2-0.5,0.4-0.8L402.1,245l37.1-43.5c-0.4-0.3-0.7-0.7-0.9-1.2l-37.3,43.7l-4.5-31.8l41.6-12.3c-0.1-0.3-0.2-0.6-0.3-0.8
			l-41.5,12.3l-0.9-6l0.2-0.2l-0.2-0.2l-2.9-20.4l14.9,4.3l-2.2,2.7l0.9,0.7l2.5-3.1l29.2,8.5c0.1-0.5,0.2-1,0.4-1.4l-28.6-8.3l0,0
			l-0.9-0.7l-0.3,0.4l-16.1-4.7l-2.1-14.8c-0.3,0.1-0.6,0.1-0.9,0.1l2,14.4l-5.7-1.6l3-12.7c-0.3,0-0.6-0.1-0.9-0.2l-3,12.7l-24-7
			c0,0.5-0.2,1-0.4,1.4l24.1,7l-8.2,35l-13.5,4l-3.8-3.4l-0.8,0.9l3.2,2.9l-10.8,3.2l6.9-47.9c-0.3,0-0.6,0-0.9-0.1l-5,34.5
			l-3.7-3.3l-0.8,0.9l4.2,3.7l0.1-0.1l-1.8,12.5l-15.2,4.5c0.1,0.3,0.2,0.6,0.2,0.8l14.8-4.4l-4.2,29.1c0.3,0,0.6,0.1,0.9,0.1
			l4.2-29.5l11.7-3.5l0.2,0.2l0.3-0.3l13.3-3.9l-1.9,8c0.3,0,0.6,0.1,0.9,0.2l2-8.5l10.2-3l0.3,0.2l0.3-0.4l7.8-2.3L400,244
			l-21.8-10.6c-0.1,0.3-0.2,0.5-0.4,0.8l22.3,10.8l-23.5,27.5c0.4,0.3,0.8,0.6,1.1,1l22.7-26.6l3.1,21.9l-24.3,7.3
			c0.1,0.3,0.2,0.6,0.2,0.9l24.2-7.3l0.7,4.8c0.3-0.1,0.6-0.1,0.9-0.1l-0.7-4.9L427.9,262.3z M388.7,213.6l2.2-2.7l-0.9-0.7
			l-3.3,4.1l-9.5,2.8l8.1-34.5l6.2,1.8l2.9,20.4l-3.3,4l0.9,0.7l2.6-3.2l0.8,5.3L388.7,213.6z"/>
		<path id="XMLID_102_" class="st0" d="M401.3,278.8c0-0.1,0-0.3,0-0.4c0-0.1,0-0.3,0-0.4h-21.7c0,0.1,0,0.3,0,0.4
			c0,0.1,0,0.3,0,0.4H401.3z"/>
		<path id="XMLID_101_" class="st0" d="M360.7,173.1l24.6-7.3c-0.1-0.3-0.2-0.6-0.2-0.8l-24.6,7.3
			C360.6,172.6,360.7,172.9,360.7,173.1z"/>
		<path id="XMLID_100_" class="st0" d="M442.2,202.7l2.8,19.4c0.3-0.1,0.6-0.1,0.9-0.1l-2.8-19.4
			C442.8,202.6,442.5,202.7,442.2,202.7z"/>
		<path id="XMLID_98_" class="st0" d="M334.1,230.6c0-0.3-0.1-0.6-0.3-0.8"/>
		<path id="XMLID_97_" class="st0" d="M369.3,235l-21,21.4c0.2,0.2,0.4,0.4,0.6,0.6l21-21.4C369.7,235.4,369.5,235.2,369.3,235z"/>
		
			<rect id="XMLID_96_" x="341.4" y="204.9" transform="matrix(0.7452 0.6668 -0.6668 0.7452 224.6966 -177.155)" class="st0" width="5.6" height="1.2"/>
		
			<rect id="XMLID_95_" x="352.4" y="214.7" transform="matrix(-0.7452 -0.6668 0.6668 -0.7452 476.2772 612.5383)" class="st0" width="5.6" height="1.2"/>
		
			<rect id="XMLID_93_" x="363.3" y="224.5" transform="matrix(-0.7452 -0.6668 0.6668 -0.7452 488.9036 637.0361)" class="st0" width="5.6" height="1.2"/>
		
			<rect id="XMLID_92_" x="402.1" y="192.7" transform="matrix(-0.7749 -0.6321 0.6321 -0.7749 591.1169 601.5195)" class="st0" width="1.2" height="5.6"/>
		
			<rect id="XMLID_91_" x="383.4" y="215.6" transform="matrix(-0.7749 -0.6321 0.6321 -0.7749 543.5671 630.3109)" class="st0" width="1.2" height="5.6"/>
		
			<rect id="XMLID_90_" x="411.4" y="181.3" transform="matrix(0.7749 0.6321 -0.6321 0.7749 209.0862 -218.9748)" class="st0" width="1.2" height="5.6"/>
		
			<rect id="XMLID_89_" x="397.4" y="198.4" transform="matrix(-0.7748 -0.6322 0.6322 -0.7748 579.1564 608.7502)" class="st0" width="1.2" height="5.6"/>
		
			<rect id="XMLID_88_" x="378.8" y="221.3" transform="matrix(-0.7749 -0.6321 0.6321 -0.7749 531.6678 637.5135)" class="st0" width="1.2" height="5.6"/>
		
			<rect id="XMLID_65_" x="372.6" y="238.3" transform="matrix(0.9999 1.427679e-002 -1.427679e-002 0.9999 3.4802 -5.3029)" class="st0" width="1.2" height="5.6"/>
		
			<rect id="XMLID_64_" x="372.3" y="260.4" transform="matrix(-0.9999 -1.427679e-002 1.427679e-002 -0.9999 741.8886 531.7497)" class="st0" width="1.2" height="5.6"/>
		
			<rect id="XMLID_63_" x="372.4" y="253" transform="matrix(-0.9999 -1.427679e-002 1.427679e-002 -0.9999 742.2036 517.0017)" class="st0" width="1.2" height="5.6"/>
		<path id="XMLID_61_" class="st0" d="M339.7,202.2l0.7,0.6l0.8-0.9l-0.7-0.6C340.2,201.7,340,201.9,339.7,202.2z"/>
		<path id="XMLID_60_" class="st0" d="M424.3,177.3c-0.2,0.2-0.4,0.4-0.7,0.6l15.2,17.4c0.2-0.2,0.4-0.4,0.7-0.6L424.3,177.3z"/>
		
			<rect id="XMLID_59_" x="372.5" y="245.7" transform="matrix(-0.9999 -1.427679e-002 1.427679e-002 -0.9999 742.5192 502.2539)" class="st0" width="1.2" height="5.6"/>
		<path id="XMLID_58_" class="st0" d="M416.7,177.3l-2.3,2.8l0.9,0.7l2.3-2.8C417.3,177.9,417,177.6,416.7,177.3z"/>
		<path id="XMLID_57_" class="st0" d="M372.6,271.3c0.2,0,0.5,0,0.7,0l0.1-3.6l-1.2,0l-0.1,3.6C372.3,271.3,372.5,271.3,372.6,271.3
			z"/>
		<circle id="XMLID_56_" class="st1" cx="372.6" cy="278.4" r="6.4"/>
		<circle id="XMLID_55_" class="st1" cx="442.1" cy="198.3" r="3.8"/>
		<circle id="XMLID_54_" class="st1" cx="405.4" cy="278.4" r="3.5"/>
		<circle id="XMLID_53_" class="st1" cx="389.1" cy="164.3" r="3.5"/>
		<circle id="XMLID_52_" class="st1" cx="373.3" cy="231.5" r="4.7"/>
		<circle id="XMLID_51_" class="st2" cx="446.7" cy="231" r="8.4"/>
		<circle id="XMLID_50_" class="st2" cx="432.8" cy="260.4" r="4.7"/>
		<circle id="XMLID_49_" class="st2" cx="345" cy="260.4" r="4.7"/>
		<circle id="XMLID_48_" class="st2" cx="420.5" cy="173.6" r="4.7"/>
		<circle id="XMLID_47_" class="st3" cx="336.2" cy="198.3" r="4.7"/>
		<circle id="XMLID_46_" class="st3" cx="357.5" cy="173.6" r="2.7"/>
		<circle id="XMLID_45_" class="st2" cx="331.5" cy="231" r="2.7"/>
		<path id="XMLID_44_" class="st4" d="M360.2,173.6c0,0.9-0.4,1.7-1.1,2.2h57.3c-0.3-0.6-0.5-1.4-0.5-2.2s0.2-1.5,0.5-2.2h-57.3
			C359.7,172,360.2,172.8,360.2,173.6z"/>
		<path id="XMLID_43_" class="st4" d="M340.8,198.3c0,1.3-0.5,2.4-1.3,3.3l98.8,29.2c0-1.5,0.5-2.9,1.2-4.2l-98.8-29.2
			C340.8,197.7,340.8,198,340.8,198.3z"/>
		<path id="XMLID_42_" class="st4" d="M428.1,260.4c0-0.8,0.2-1.5,0.5-2.2h-79.5c0.3,0.6,0.5,1.4,0.5,2.2c0,0.8-0.2,1.5-0.5,2.2
			l79.5,0C428.3,261.9,428.1,261.2,428.1,260.4z"/>
		<path id="XMLID_41_" class="st4" d="M441.3,237.4l-8.6,18.3c0.1,0,0.1,0,0.2,0c1.5,0,2.9,0.7,3.7,1.9l8.6-18.3
			C443.7,239,442.4,238.3,441.3,237.4z"/>
		<path id="XMLID_40_" class="st4" d="M337.2,193.7c1.5,0.4,2.7,1.4,3.3,2.8l17.6-20.3c-0.2,0-0.4,0.1-0.6,0.1
			c-1.5,0-2.7-1.2-2.7-2.7c0-0.1,0-0.1,0-0.2L337.2,193.7z"/>
		<path id="XMLID_39_" class="st4" d="M345,255.7c0.1,0,0.2,0,0.4,0l-11.2-24.4c-0.2,1.3-1.3,2.3-2.7,2.3c-0.5,0-1-0.2-1.5-0.4
			l11.2,24.4C342.1,256.5,343.4,255.7,345,255.7z"/>
		<path id="XMLID_36_" class="st5" d="M446.7,221.9c-5,0-9,4.1-9,9s4.1,9,9,9c5,0,9-4.1,9-9S451.7,221.9,446.7,221.9z M446.7,239.4
			c-4.7,0-8.4-3.8-8.4-8.4s3.8-8.4,8.4-8.4c4.7,0,8.4,3.8,8.4,8.4S451.4,239.4,446.7,239.4z"/>
		<path id="XMLID_33_" class="st5" d="M372.6,271.3c-3.9,0-7,3.2-7,7c0,3.9,3.2,7,7,7c3.9,0,7-3.2,7-7
			C379.7,274.5,376.5,271.3,372.6,271.3z M372.6,284.8c-3.6,0-6.4-2.9-6.4-6.4c0-3.6,2.9-6.4,6.4-6.4c3.6,0,6.4,2.9,6.4,6.4
			C379.1,281.9,376.2,284.8,372.6,284.8z"/>
		<path id="XMLID_30_" class="st5" d="M432.8,255.1c-2.9,0-5.3,2.4-5.3,5.3s2.4,5.3,5.3,5.3c2.9,0,5.3-2.4,5.3-5.3
			S435.7,255.1,432.8,255.1z M432.8,265.1c-2.6,0-4.7-2.1-4.7-4.7c0-2.6,2.1-4.7,4.7-4.7c2.6,0,4.7,2.1,4.7,4.7
			C437.5,263,435.4,265.1,432.8,265.1z"/>
		<path id="XMLID_27_" class="st5" d="M345,255.1c-2.9,0-5.3,2.4-5.3,5.3s2.4,5.3,5.3,5.3c2.9,0,5.3-2.4,5.3-5.3
			S347.9,255.1,345,255.1z M345,265.1c-2.6,0-4.7-2.1-4.7-4.7c0-2.6,2.1-4.7,4.7-4.7c2.6,0,4.7,2.1,4.7,4.7
			C349.7,263,347.6,265.1,345,265.1z"/>
		<path id="XMLID_24_" class="st5" d="M420.5,168.4c-2.9,0-5.3,2.4-5.3,5.3c0,2.9,2.4,5.3,5.3,5.3c2.9,0,5.3-2.4,5.3-5.3
			C425.8,170.7,423.4,168.4,420.5,168.4z M420.5,178.3c-2.6,0-4.7-2.1-4.7-4.7c0-2.6,2.1-4.7,4.7-4.7c2.6,0,4.7,2.1,4.7,4.7
			C425.2,176.2,423.1,178.3,420.5,178.3z"/>
		<path id="XMLID_21_" class="st2" d="M341.4,198.3c0-2.9-2.4-5.3-5.3-5.3c-2.9,0-5.3,2.4-5.3,5.3c0,2.9,2.4,5.3,5.3,5.3
			C339.1,203.6,341.4,201.2,341.4,198.3z M336.2,203c-2.6,0-4.7-2.1-4.7-4.7c0-2.6,2.1-4.7,4.7-4.7c2.6,0,4.7,2.1,4.7,4.7
			C340.8,200.9,338.7,203,336.2,203z"/>
		<path id="XMLID_18_" class="st5" d="M442.1,202.7c2.4,0,4.4-2,4.4-4.4c0-2.4-2-4.4-4.4-4.4c-2.4,0-4.4,2-4.4,4.4
			C437.7,200.7,439.6,202.7,442.1,202.7z M442.1,194.5c2.1,0,3.8,1.7,3.8,3.8c0,2.1-1.7,3.8-3.8,3.8c-2.1,0-3.8-1.7-3.8-3.8
			C438.3,196.2,440,194.5,442.1,194.5z"/>
		<path id="XMLID_15_" class="st5" d="M405.4,274.3c-2.2,0-4.1,1.8-4.1,4.1c0,2.2,1.8,4.1,4.1,4.1s4.1-1.8,4.1-4.1
			C409.4,276.1,407.6,274.3,405.4,274.3z M405.4,281.8c-1.9,0-3.5-1.6-3.5-3.5s1.6-3.5,3.5-3.5c1.9,0,3.5,1.6,3.5,3.5
			S407.3,281.8,405.4,281.8z"/>
		<path id="XMLID_12_" class="st5" d="M389.1,160.2c-2.2,0-4.1,1.8-4.1,4.1c0,2.2,1.8,4.1,4.1,4.1c2.2,0,4.1-1.8,4.1-4.1
			C393.2,162.1,391.3,160.2,389.1,160.2z M389.1,167.8c-1.9,0-3.5-1.6-3.5-3.5c0-1.9,1.6-3.5,3.5-3.5c1.9,0,3.5,1.6,3.5,3.5
			C392.6,166.2,391,167.8,389.1,167.8z"/>
		<path id="XMLID_9_" class="st5" d="M331.5,227.7c-1.8,0-3.3,1.5-3.3,3.3s1.5,3.3,3.3,3.3c1.8,0,3.3-1.5,3.3-3.3
			S333.3,227.7,331.5,227.7z M331.5,233.6c-1.5,0-2.7-1.2-2.7-2.7c0-1.5,1.2-2.7,2.7-2.7c1.5,0,2.7,1.2,2.7,2.7
			C334.2,232.4,333,233.6,331.5,233.6z"/>
		<path id="XMLID_6_" class="st2" d="M357.5,170.4c-1.8,0-3.3,1.5-3.3,3.3c0,1.8,1.5,3.3,3.3,3.3s3.3-1.5,3.3-3.3
			C360.8,171.8,359.3,170.4,357.5,170.4z M357.5,176.3c-1.5,0-2.7-1.2-2.7-2.7c0-1.5,1.2-2.7,2.7-2.7c1.5,0,2.7,1.2,2.7,2.7
			C360.2,175.1,359,176.3,357.5,176.3z"/>
		<path id="XMLID_3_" class="st5" d="M373.3,226.8c2.6,0,4.7,2.1,4.7,4.7c0,2.6-2.1,4.7-4.7,4.7c-2.6,0-4.7-2.1-4.7-4.7
			C368.6,228.9,370.7,226.8,373.3,226.8 M373.3,226.2c-2.9,0-5.3,2.4-5.3,5.3c0,2.9,2.4,5.3,5.3,5.3c2.9,0,5.3-2.4,5.3-5.3
			C378.6,228.6,376.2,226.2,373.3,226.2z"/>
	</g>
</g>
<g id="XMLID_1178_">
	<path id="XMLID_1179_" d="M69.9,196.5c-3.2-4.5-8.9-6.7-14.7-6.7c-6.9,0-13.8,3.1-13.8,10.8c0,16.9,39.9,7.2,39.9,37.2
		c0,18.1-14.3,26.8-30.8,26.8c-10.5,0-20.7-3.2-27.6-11.4l11.3-10.9c3.7,5.6,10,8.8,16.6,8.8c6.9,0,14.7-3.8,14.7-11.5
		c0-18.4-39.9-7.8-39.9-37.9c0-17.3,15.4-25.4,31-25.4c8.8,0,17.6,2.5,24.1,8.7L69.9,196.5z"/>
	<path id="XMLID_1181_" d="M164.2,231.6c0,20.3-14.6,33-33.8,33c-19.2,0-33.8-12.7-33.8-33v-53.2h15v52.7c0,8.3,4.5,19.2,18.9,19.2
		c14.4,0,18.9-10.9,18.9-19.2v-52.7h15V231.6z"/>
	<path id="XMLID_1185_" d="M182.6,178.4h29.2c16.2,0,31.4,5.2,31.4,24.1c0,12.1-7,21-19.5,22.8l22.3,37.2h-18.1l-19.5-35.6h-10.9
		v35.6h-15V178.4z M209.2,214c8.4,0,18.3-0.7,18.3-11.6c0-10-9.3-11.2-17-11.2h-12.9V214H209.2z"/>
	<path id="XMLID_1188_" d="M257.4,178.4h29.2c16.2,0,31.4,5.2,31.4,24.1c0,12.1-7,21-19.5,22.8l22.3,37.2h-18.1l-19.5-35.6h-10.9
		v35.6h-15V178.4z M284,214c8.4,0,18.3-0.7,18.3-11.6c0-10-9.3-11.2-17-11.2h-12.9V214H284z"/>
	<path id="XMLID_1235_" d="M527,231.6c0,20.3-14.6,33-33.8,33c-19.2,0-33.8-12.7-33.8-33v-53.2h15v52.7c0,8.3,4.5,19.2,18.9,19.2
		s18.9-10.9,18.9-19.2v-52.7h15V231.6z"/>
	<path id="XMLID_1237_" d="M545.4,178.4h19.8l40.7,62.5h0.2v-62.5h15v84.1h-19L560.6,198h-0.2v64.5h-15V178.4z"/>
	<path id="XMLID_1239_" d="M639.9,178.4h33.1c22.1,0,42.8,13.5,42.8,42c0,28.7-24.3,42-44.5,42h-31.4V178.4z M666.1,249
		c18.8,0,34.1-8.1,34.1-28.5c0-20.4-13.3-28.5-31.6-28.5h-13.7v57H666.1z"/>
</g>
<g id="XMLID_94_">
	<g id="XMLID_62_">
		<path id="XMLID_66_" class="st0" d="M662.9,520.6l-45,29.5c0.4,0.5,0.8,1.1,1.1,1.7l45.1-29.5
			C663.6,521.8,663.2,521.2,662.9,520.6z"/>
		<path id="XMLID_69_" class="st0" d="M662.3,519.3c-0.2-0.6-0.5-1.3-0.6-1.9l-53.2,16l-7.3-51.5l0.6-0.7l60.5,29.4
			c0.2-0.6,0.5-1.2,0.9-1.8l-60-29.1l84.8-99.4c-0.9-0.8-1.6-1.7-2.1-2.7l-85.3,100l-10.4-72.8l95.2-28.1c-0.3-0.6-0.4-1.3-0.6-1.9
			l-95,28.1l-2-13.7l0.4-0.5l-0.5-0.4l-6.6-46.6l34,9.9l-5,6.2l2.1,1.7l5.7-7l66.8,19.4c0.1-1.1,0.5-2.2,1-3.2l-65.4-19l0-0.1
			l-2.1-1.7l-0.8,0.9l-36.8-10.7l-4.8-33.8c-0.6,0.2-1.3,0.3-2,0.3l4.7,32.8l-13-3.8l6.8-29.1c-0.7-0.1-1.3-0.2-2-0.5l-6.8,29
			l-54.9-16c-0.1,1.2-0.4,2.3-0.9,3.2l55.1,16l-18.8,80.2l-30.8,9.1l-8.6-7.7l-1.8,2l7.4,6.6l-24.8,7.3l15.8-109.7
			c-0.7,0-1.4-0.1-2-0.3l-11.4,79l-8.4-7.5l-1.8,2l9.6,8.6l0.2-0.2l-4.1,28.7l-34.7,10.3c0.3,0.6,0.5,1.3,0.6,1.9l33.8-10l-9.6,66.5
			c0.7,0,1.4,0.1,2,0.3l9.7-67.4l26.9-7.9l0.4,0.4l0.6-0.7l30.5-9l-4.3,18.4c0.7,0.1,1.3,0.2,2,0.5l4.6-19.5l23.3-6.9l0.6,0.5
			l0.7-0.9l17.9-5.3l10.3,72.1l-49.9-24.2c-0.2,0.6-0.5,1.2-0.9,1.8l51,24.7l-53.8,63c0.9,0.6,1.8,1.4,2.6,2.2l52-60.9l7.1,50
			L551,550.8c0.2,0.6,0.4,1.3,0.5,2l55.3-16.7l1.6,10.9c0.6-0.2,1.3-0.3,2-0.3l-1.6-11.2L662.3,519.3z M572.5,407.8l5.1-6.3
			l-2.1-1.7l-7.6,9.3l-21.7,6.4l18.6-78.9l14.3,4.1l6.7,46.6l-7.5,9.3l2.1,1.7l6-7.3l1.7,12.2L572.5,407.8z"/>
		<path id="XMLID_70_" class="st0" d="M601.4,557c0-0.3-0.1-0.7-0.1-1c0-0.3,0-0.7,0.1-1h-49.6c0,0.3,0.1,0.7,0.1,1
			c0,0.3,0,0.7-0.1,1H601.4z"/>
		<path id="XMLID_71_" class="st0" d="M508.5,315.2l56.4-16.7c-0.3-0.6-0.4-1.3-0.6-1.9L508,313.3
			C508.2,313.9,508.4,314.6,508.5,315.2z"/>
		<path id="XMLID_72_" class="st0" d="M695.1,382.8l6.3,44.4c0.7-0.1,1.3-0.2,2-0.3l-6.3-44.4C696.4,382.6,695.7,382.7,695.1,382.8z
			"/>
		<path id="XMLID_73_" class="st0" d="M447.7,446.8c-0.1-0.7-0.3-1.3-0.6-1.9"/>
		<path id="XMLID_74_" class="st0" d="M528.2,456.6l-47.9,49c0.5,0.4,1,0.9,1.4,1.4l47.9-49C529.1,457.6,528.6,457.2,528.2,456.6z"
			/>
		
			<rect id="XMLID_99_" x="464.2" y="387.8" transform="matrix(0.7452 0.6668 -0.6668 0.7452 379.4177 -214.6919)" class="st0" width="12.8" height="2.7"/>
		
			<rect id="XMLID_108_" x="489.4" y="410.3" transform="matrix(-0.7452 -0.6668 0.6668 -0.7452 590.7908 1049.0122)" class="st0" width="12.8" height="2.7"/>
		
			<rect id="XMLID_109_" x="514.5" y="432.8" transform="matrix(-0.7452 -0.6668 0.6668 -0.7452 619.6813 1105.0654)" class="st0" width="12.8" height="2.7"/>
		
			<rect id="XMLID_110_" x="603.2" y="360" transform="matrix(-0.7749 -0.6321 0.6321 -0.7749 841.3433 1032.4009)" class="st0" width="2.7" height="12.8"/>
		
			<rect id="XMLID_113_" x="560.5" y="412.3" transform="matrix(-0.7749 -0.6321 0.6321 -0.7749 732.5449 1098.2782)" class="st0" width="2.7" height="12.8"/>
		
			<rect id="XMLID_116_" x="624.5" y="333.8" transform="matrix(0.7749 0.6321 -0.6321 0.7749 355.9278 -318.9911)" class="st0" width="2.7" height="12.8"/>
		
			<rect id="XMLID_120_" x="592.5" y="373.1" transform="matrix(-0.7748 -0.6322 0.6322 -0.7748 814.0237 1048.9102)" class="st0" width="2.7" height="12.8"/>
		
			<rect id="XMLID_125_" x="549.8" y="425.4" transform="matrix(-0.7749 -0.6321 0.6321 -0.7749 705.326 1114.7528)" class="st0" width="2.7" height="12.8"/>
		
			<rect id="XMLID_130_" x="535.6" y="464.3" transform="matrix(0.9999 1.427679e-002 -1.427679e-002 0.9999 6.7751 -7.6184)" class="st0" width="2.7" height="12.8"/>
		
			<rect id="XMLID_134_" x="534.9" y="514.9" transform="matrix(-0.9999 -1.427679e-002 1.427679e-002 -0.9999 1065.0299 1050.2898)" class="st0" width="2.7" height="12.8"/>
		
			<rect id="XMLID_135_" x="535.2" y="498.1" transform="matrix(-0.9999 -1.427679e-002 1.427679e-002 -0.9999 1065.7506 1016.545)" class="st0" width="2.7" height="12.8"/>
		<path id="XMLID_137_" class="st0" d="M460.3,381.7l1.6,1.4l1.8-2l-1.6-1.4C461.6,380.5,461,381.1,460.3,381.7z"/>
		<path id="XMLID_138_" class="st0" d="M654,324.7c-0.5,0.5-1,0.9-1.5,1.3l34.9,39.8c0.5-0.5,1-0.9,1.5-1.3L654,324.7z"/>
		
			<rect id="XMLID_139_" x="535.4" y="481.2" transform="matrix(-0.9999 -1.427679e-002 1.427679e-002 -0.9999 1066.4729 982.8007)" class="st0" width="2.7" height="12.8"/>
		<path id="XMLID_141_" class="st0" d="M636.7,324.8l-5.3,6.5l2.1,1.7l5.3-6.5C638,326,637.3,325.4,636.7,324.8z"/>
		<path id="XMLID_143_" class="st0" d="M535.8,539.9c0.5,0,1.1,0,1.6,0.1l0.1-8.1l-2.7,0l-0.1,8.2
			C535,539.9,535.4,539.9,535.8,539.9z"/>
		<circle id="XMLID_144_" class="st1" cx="535.8" cy="556" r="14.7"/>
		<circle id="XMLID_145_" class="st1" cx="694.7" cy="372.7" r="8.7"/>
		<circle id="XMLID_146_" class="st1" cx="610.7" cy="556" r="7.9"/>
		<circle id="XMLID_147_" class="st1" cx="573.5" cy="295" r="7.9"/>
		<circle id="XMLID_148_" class="st1" cx="537.3" cy="448.8" r="10.7"/>
		<circle id="XMLID_149_" class="st2" cx="705.3" cy="447.5" r="19.3"/>
		<circle id="XMLID_150_" class="st2" cx="673.5" cy="514.9" r="10.7"/>
		<circle id="XMLID_151_" class="st2" cx="472.5" cy="514.9" r="10.7"/>
		<circle id="XMLID_152_" class="st2" cx="645.3" cy="316.4" r="10.7"/>
		<circle id="XMLID_153_" class="st2" cx="452.3" cy="372.7" r="10.7"/>
		<circle id="XMLID_154_" class="st2" cx="501.1" cy="316.4" r="6.1"/>
		<circle id="XMLID_155_" class="st2" cx="441.6" cy="447.5" r="6.1"/>
		<path id="XMLID_156_" class="st4" d="M507.3,316.4c0,2-1,3.8-2.5,5h131.1c-0.8-1.5-1.2-3.2-1.2-5s0.4-3.5,1.2-5H504.8
			C506.3,312.5,507.3,314.3,507.3,316.4z"/>
		<path id="XMLID_157_" class="st4" d="M463,372.7c0,2.9-1.2,5.5-3,7.4L686,447c0.1-3.5,1.1-6.7,2.8-9.5l-226-66.8
			C463,371.4,463,372,463,372.7z"/>
		<path id="XMLID_158_" class="st4" d="M662.8,514.9c0-1.8,0.4-3.5,1.2-5H482c0.8,1.5,1.2,3.2,1.2,5c0,1.8-0.4,3.5-1.2,5l182,0
			C663.2,518.4,662.8,516.7,662.8,514.9z"/>
		<path id="XMLID_159_" class="st4" d="M692.8,462.3l-19.8,41.9c0.1,0,0.3,0,0.4,0c3.5,0,6.6,1.7,8.5,4.2l19.8-41.9
			C698.4,465.9,695.4,464.4,692.8,462.3z"/>
		<path id="XMLID_160_" class="st4" d="M454.8,362.3c3.4,0.8,6.2,3.3,7.5,6.5l40.2-46.5c-0.4,0.1-0.9,0.2-1.4,0.2
			c-3.4,0-6.1-2.7-6.1-6.1c0-0.2,0-0.3,0-0.5L454.8,362.3z"/>
		<path id="XMLID_161_" class="st4" d="M472.5,504.2c0.3,0,0.6,0,0.8,0l-25.7-55.9c-0.4,3-3,5.3-6.1,5.3c-1.2,0-2.4-0.4-3.4-1
			l25.7,55.9C465.9,505.9,469,504.2,472.5,504.2z"/>
		<path id="XMLID_164_" class="st5" d="M705.3,426.8c-11.4,0-20.7,9.3-20.7,20.7c0,11.4,9.3,20.7,20.7,20.7
			c11.4,0,20.7-9.3,20.7-20.7C726,436.1,716.7,426.8,705.3,426.8z M705.3,466.8c-10.7,0-19.3-8.7-19.3-19.3s8.7-19.3,19.3-19.3
			c10.7,0,19.3,8.7,19.3,19.3S716,466.8,705.3,466.8z"/>
		<path id="XMLID_167_" class="st5" d="M535.8,539.9c-8.9,0-16.1,7.2-16.1,16.1c0,8.9,7.2,16.1,16.1,16.1c8.9,0,16.1-7.2,16.1-16.1
			C551.9,547.1,544.6,539.9,535.8,539.9z M535.8,570.7c-8.1,0-14.7-6.6-14.7-14.7c0-8.1,6.6-14.7,14.7-14.7
			c8.1,0,14.7,6.6,14.7,14.7C550.5,564.1,543.9,570.7,535.8,570.7z"/>
		<path id="XMLID_170_" class="st5" d="M673.5,502.8c-6.6,0-12.1,5.4-12.1,12.1c0,6.6,5.4,12.1,12.1,12.1c6.6,0,12.1-5.4,12.1-12.1
			C685.5,508.2,680.1,502.8,673.5,502.8z M673.5,525.6c-5.9,0-10.7-4.8-10.7-10.7c0-5.9,4.8-10.7,10.7-10.7
			c5.9,0,10.7,4.8,10.7,10.7C684.2,520.8,679.4,525.6,673.5,525.6z"/>
		<path id="XMLID_173_" class="st5" d="M472.5,502.8c-6.6,0-12.1,5.4-12.1,12.1c0,6.6,5.4,12.1,12.1,12.1c6.6,0,12.1-5.4,12.1-12.1
			C484.6,508.2,479.2,502.8,472.5,502.8z M472.5,525.6c-5.9,0-10.7-4.8-10.7-10.7c0-5.9,4.8-10.7,10.7-10.7
			c5.9,0,10.7,4.8,10.7,10.7C483.3,520.8,478.5,525.6,472.5,525.6z"/>
		<path id="XMLID_176_" class="st5" d="M645.3,304.3c-6.6,0-12.1,5.4-12.1,12.1c0,6.6,5.4,12.1,12.1,12.1c6.6,0,12.1-5.4,12.1-12.1
			C657.4,309.7,652,304.3,645.3,304.3z M645.3,327.1c-5.9,0-10.7-4.8-10.7-10.7c0-5.9,4.8-10.7,10.7-10.7s10.7,4.8,10.7,10.7
			C656,322.3,651.2,327.1,645.3,327.1z"/>
		<path id="XMLID_179_" class="st5" d="M464.4,372.7c0-6.6-5.4-12.1-12.1-12.1c-6.6,0-12.1,5.4-12.1,12.1c0,6.6,5.4,12.1,12.1,12.1
			C459,384.8,464.4,379.4,464.4,372.7z M452.3,383.5c-5.9,0-10.7-4.8-10.7-10.7c0-5.9,4.8-10.7,10.7-10.7s10.7,4.8,10.7,10.7
			C463,378.7,458.2,383.5,452.3,383.5z"/>
		<path id="XMLID_182_" class="st5" d="M694.7,382.8c5.5,0,10-4.5,10-10c0-5.5-4.5-10-10-10c-5.5,0-10,4.5-10,10
			C684.6,378.3,689.1,382.8,694.7,382.8z M694.7,364.1c4.8,0,8.7,3.9,8.7,8.7c0,4.8-3.9,8.7-8.7,8.7c-4.8,0-8.7-3.9-8.7-8.7
			C686,367.9,689.9,364.1,694.7,364.1z"/>
		<path id="XMLID_186_" class="st5" d="M610.7,546.7c-5.1,0-9.3,4.2-9.3,9.3c0,5.1,4.2,9.3,9.3,9.3c5.1,0,9.3-4.2,9.3-9.3
			C620,550.8,615.8,546.7,610.7,546.7z M610.7,563.9c-4.4,0-7.9-3.6-7.9-7.9c0-4.4,3.6-7.9,7.9-7.9c4.4,0,7.9,3.6,7.9,7.9
			C618.6,560.4,615.1,563.9,610.7,563.9z"/>
		<path id="XMLID_190_" class="st5" d="M573.5,285.7c-5.1,0-9.3,4.2-9.3,9.3c0,5.1,4.2,9.3,9.3,9.3s9.3-4.2,9.3-9.3
			C582.7,289.9,578.6,285.7,573.5,285.7z M573.5,302.9c-4.4,0-7.9-3.6-7.9-7.9c0-4.4,3.6-7.9,7.9-7.9s7.9,3.6,7.9,7.9
			C581.4,299.4,577.8,302.9,573.5,302.9z"/>
		<path id="XMLID_196_" class="st5" d="M441.6,440c-4.1,0-7.5,3.4-7.5,7.5s3.4,7.5,7.5,7.5c4.1,0,7.5-3.4,7.5-7.5
			S445.7,440,441.6,440z M441.6,453.6c-3.4,0-6.1-2.7-6.1-6.1c0-3.4,2.7-6.1,6.1-6.1c3.4,0,6.1,2.7,6.1,6.1
			C447.8,450.9,445,453.6,441.6,453.6z"/>
		<path id="XMLID_199_" class="st5" d="M501.1,308.9c-4.1,0-7.5,3.4-7.5,7.5c0,4.1,3.4,7.5,7.5,7.5s7.5-3.4,7.5-7.5
			C508.6,312.2,505.3,308.9,501.1,308.9z M501.1,322.5c-3.4,0-6.1-2.7-6.1-6.1c0-3.4,2.7-6.1,6.1-6.1c3.4,0,6.1,2.7,6.1,6.1
			C507.3,319.8,504.5,322.5,501.1,322.5z"/>
		<path id="XMLID_234_" class="st5" d="M537.3,438.1c5.9,0,10.7,4.8,10.7,10.7s-4.8,10.7-10.7,10.7c-5.9,0-10.7-4.8-10.7-10.7
			S531.4,438.1,537.3,438.1 M537.3,436.7c-6.6,0-12.1,5.4-12.1,12.1c0,6.6,5.4,12.1,12.1,12.1c6.6,0,12.1-5.4,12.1-12.1
			C549.4,442.1,543.9,436.7,537.3,436.7z"/>
	</g>
</g>
<rect id="XMLID_131_" x="271.9" y="330.4" class="st2" width="40.8" height="40.8"/>
<text id="XMLID_258_" transform="matrix(1 0 0 1 200.747 354.4441)" class="st6 st7">PMS 661</text>
<rect id="XMLID_260_" x="271.9" y="388.9" class="st1" width="40.8" height="40.8"/>
<text id="XMLID_259_" transform="matrix(1 0 0 1 191.7654 413.028)" class="st6 st7">PMS 1797</text>
<rect id="XMLID_262_" x="271.9" y="449.1" class="st0" width="40.8" height="40.8"/>
<text id="XMLID_261_" transform="matrix(1 0 0 1 179.3282 473.1358)" class="st6 st7">Cool Grey 8</text>
<rect id="XMLID_264_" x="271.9" y="504.1" class="st4" width="40.8" height="40.8"/>
<text id="XMLID_263_" transform="matrix(1 0 0 1 200.747 528.1589)" class="st6 st7">PMS 447</text>
</svg>
