<svg version="1.1" 
id="artboard_3" 
xmlns="http://www.w3.org/2000/svg" 
xmlns:xlink="http://www.w3.org/1999/xlink"
viewBox="15 25 810 125" 
xml:space="preserve">
    <style type="text/css">
        .st0{fill:#898B8E;}
        .st1{fill:#D03439;}
        .st2{fill:#243E8D;}
        .st3{fill:#293C98;}
        .st4{fill:#373A36;}
        .st5{fill:#FFFFFF;}
        .st6{font-family:'MyriadPro-Regular';}
        .st7{font-size:16.5819px;}
    </style>
    <g id="XMLID_111_">
        <path id="XMLID_257_" class="st0" d="M116,127.3l-19.7,12.8c0.2,0.2,0.3,0.5,0.5,0.7l19.7-12.9C116.3,127.8,116.2,127.6,116,127.3z"/>
        <path id="XMLID_254_" class="st0" d="M115.8,126.7c-0.1-0.3-0.2-0.6-0.3-0.8l-23.2,7l-3.2-22.5l0.3-0.3l26.4,12.8c0.1-0.3,0.2-0.5,0.4-0.8l-26.2-12.7l37-43.4c-0.4-0.3-0.7-0.7-0.9-1.2l-37.2,43.6l-4.5-31.8l41.6-12.3c-0.1-0.3-0.2-0.6-0.2-0.8L84.1,75.8l-0.9-6l0.2-0.2l-0.2-0.2l-2.9-20.3l14.8,4.3L93,56.1l0.9,0.7l2.5-3.1l29.1,8.5c0.1-0.5,0.2-1,0.4-1.4l-28.6-8.3l0,0l-0.9-0.7l-0.3,0.4l-16.1-4.7L78,32.8c-0.3,0.1-0.6,0.1-0.9,0.1l2,14.3l-5.7-1.6l3-12.7c-0.3,0-0.6-0.1-0.9-0.2l-3,12.7l-24-7c0,0.5-0.2,1-0.4,1.4l24,7l-8.2,35l-13.4,4l-3.8-3.4l-0.8,0.9l3.2,2.9l-10.8,3.2l6.9-47.9c-0.3,0-0.6,0-0.9-0.1l-5,34.5l-3.6-3.3l-0.8,0.9l4.2,3.7l0.1-0.1l-1.8,12.5l-15.1,4.5c0.1,0.3,0.2,0.6,0.2,0.8l14.8-4.4l-4.2,29c0.3,0,0.6,0.1,0.9,0.1l4.2-29.4l11.7-3.5l0.2,0.2l0.3-0.3l13.3-3.9l-1.9,8c0.3,0,0.6,0.1,0.9,0.2l2-8.5l10.2-3l0.3,0.2l0.3-0.4l7.8-2.3l4.5,31.4L66.1,97.9c-0.1,0.3-0.2,0.5-0.4,0.8L88,109.4l-23.5,27.5c0.4,0.3,0.8,0.6,1.1,1l22.7-26.6l3.1,21.8l-24.2,7.3c0.1,0.3,0.2,0.6,0.2,0.9l24.1-7.3l0.7,4.8c0.3-0.1,0.6-0.1,0.9-0.1l-0.7-4.9L115.8,126.7z M76.6,78.1l2.2-2.7l-0.9-0.7l-3.3,4.1l-9.5,2.8L73.2,47l6.2,1.8l2.9,20.4l-3.3,4l0.9,0.7l2.6-3.2l0.8,5.3L76.6,78.1z"/>
        <path id="XMLID_253_" class="st0" d="M89.2,143.2c0-0.1,0-0.3,0-0.4c0-0.1,0-0.3,0-0.4H67.5c0,0.1,0,0.3,0,0.4c0,0.1,0,0.3,0,0.4H89.2z"/>
        <path id="XMLID_252_" class="st0" d="M48.7,37.7l24.6-7.3c-0.1-0.3-0.2-0.6-0.2-0.8l-24.6,7.3C48.5,37.1,48.6,37.4,48.7,37.7z"/>
        <path id="XMLID_251_" class="st0" d="M130.1,67.2l2.8,19.4c0.3-0.1,0.6-0.1,0.9-0.1L130.9,67C130.6,67.1,130.4,67.1,130.1,67.2z"/>
        <path id="XMLID_250_" class="st0" d="M22.1,95.1c0-0.3-0.1-0.6-0.3-0.8"/>
        <path id="XMLID_249_" class="st0" d="M57.2,99.4l-20.9,21.4c0.2,0.2,0.4,0.4,0.6,0.6L57.9,100C57.6,99.8,57.4,99.6,57.2,99.4z"/>
        <rect id="XMLID_248_" x="29.3" y="69.4" transform="matrix(0.7452 0.6668 -0.6668 0.7452 54.8292 -3.6102)" class="st0" width="5.6" height="1.2"/>
        <rect id="XMLID_247_" x="40.3" y="79.2" transform="matrix(-0.7452 -0.6668 0.6668 -0.7452 22.0572 167.9494)" class="st0" width="5.6" height="1.2"/>
        <rect id="XMLID_246_" x="51.3" y="89" transform="matrix(-0.7452 -0.6668 0.6668 -0.7452 34.6621 192.4054)" class="st0" width="5.6" height="1.2"/>
        <rect id="XMLID_245_" x="90" y="57.2" transform="matrix(-0.7749 -0.6321 0.6321 -0.7749 122.7669 163.7541)" class="st0" width="1.2" height="5.6"/>
        <rect id="XMLID_244_" x="71.3" y="80" transform="matrix(-0.7749 -0.6321 0.6321 -0.7749 75.2982 192.4964)" class="st0" width="1.2" height="5.6"/>
        <rect id="XMLID_243_" x="99.3" y="45.8" transform="matrix(0.7749 0.6321 -0.6321 0.7749 53.1982 -52.1719)" class="st0" width="1.2" height="5.6"/>
        <rect id="XMLID_242_" x="85.3" y="62.9" transform="matrix(-0.7748 -0.6322 0.6322 -0.7748 110.8811 170.9443)" class="st0" width="1.2" height="5.6"/>
        <rect id="XMLID_241_" x="66.7" y="85.7" transform="matrix(-0.7749 -0.6321 0.6321 -0.7749 63.4283 199.6821)" class="st0" width="1.2" height="5.6"/>
        <rect id="XMLID_240_" x="60.5" y="102.7" transform="matrix(0.9999 1.427679e-002 -1.427679e-002 0.9999 1.5129 -0.8613)" class="st0" width="1.2" height="5.6"/>
        <rect id="XMLID_239_" x="60.2" y="124.8" transform="matrix(-0.9999 -1.427679e-002 1.427679e-002 -0.9999 119.7113 256.1003)" class="st0" width="1.2" height="5.6"/>
        <rect id="XMLID_238_" x="60.3" y="117.5" transform="matrix(-0.9999 -1.427679e-002 1.427679e-002 -0.9999 120.0258 241.3774)" class="st0" width="1.2" height="5.6"/>
        <path id="XMLID_237_" class="st0" d="M27.6,66.7l0.7,0.6l0.8-0.9l-0.7-0.6C28.2,66.2,27.9,66.4,27.6,66.7z"/>
        <path id="XMLID_236_" class="st0" d="M112.1,41.8c-0.2,0.2-0.4,0.4-0.7,0.6l15.2,17.4c0.2-0.2,0.4-0.4,0.7-0.6L112.1,41.8z"/>
        <rect id="XMLID_235_" x="60.4" y="110.1" transform="matrix(-0.9999 -1.427679e-002 1.427679e-002 -0.9999 120.3409 226.6548)" class="st0" width="1.2" height="5.6"/>
        <path id="XMLID_232_" class="st0" d="M104.6,41.9l-2.3,2.8l0.9,0.7l2.3-2.8C105.2,42.4,104.9,42.1,104.6,41.9z"/>
        <path id="XMLID_231_" class="st0" d="M60.6,135.7c0.2,0,0.5,0,0.7,0l0.1-3.6l-1.2,0l-0.1,3.6C60.2,135.7,60.4,135.7,60.6,135.7z"/>
        <circle id="XMLID_230_" class="st1" cx="60.6" cy="142.7" r="6.4"/>
        <circle id="XMLID_229_" class="st1" cx="129.9" cy="62.8" r="3.8"/>
        <circle id="XMLID_228_" class="st1" cx="93.2" cy="142.7" r="3.5"/>
        <circle id="XMLID_227_" class="st1" cx="77" cy="28.9" r="3.5"/>
        <circle id="XMLID_226_" class="st1" cx="61.2" cy="96" r="4.7"/>
        <circle id="XMLID_225_" class="st2" cx="134.5" cy="95.4" r="8.4"/>
        <circle id="XMLID_224_" class="st2" cx="120.6" cy="124.8" r="4.7"/>
        <circle id="XMLID_223_" class="st2" cx="33" cy="124.8" r="4.7"/>
        <circle id="XMLID_222_" class="st2" cx="108.3" cy="38.2" r="4.7"/>
        <circle id="XMLID_221_" class="st2" cx="24.1" cy="62.8" r="4.7"/>
        <circle id="XMLID_220_" class="st3" cx="45.4" cy="38.2" r="2.7"/>
        <circle id="XMLID_219_" class="st2" cx="19.5" cy="95.4" r="2.7"/>
        <path id="XMLID_218_" class="st4" d="M48.1,38.2c0,0.9-0.4,1.7-1.1,2.2h57.2c-0.3-0.6-0.5-1.4-0.5-2.2s0.2-1.5,0.5-2.2H47C47.7,36.5,48.1,37.3,48.1,38.2z"/>
        <path id="XMLID_217_" class="st4" d="M28.8,62.8c0,1.3-0.5,2.4-1.3,3.2l98.6,29.1c0-1.5,0.5-2.9,1.2-4.1L28.7,61.9C28.8,62.2,28.8,62.5,28.8,62.8z"/>
        <path id="XMLID_216_" class="st4" d="M116,124.8c0-0.8,0.2-1.5,0.5-2.2H37.1c0.3,0.6,0.5,1.4,0.5,2.2c0,0.8-0.2,1.5-0.5,2.2l79.4,0C116.2,126.3,116,125.6,116,124.8z"/>
        <path id="XMLID_215_" class="st4" d="M129.1,101.9l-8.6,18.3c0.1,0,0.1,0,0.2,0c1.5,0,2.9,0.7,3.7,1.9l8.6-18.3C131.5,103.4,130.2,102.8,129.1,101.9z"/>
        <path id="XMLID_214_" class="st4" d="M25.2,58.2c1.5,0.4,2.7,1.4,3.3,2.8L46,40.8c-0.2,0-0.4,0.1-0.6,0.1c-1.5,0-2.7-1.2-2.7-2.7c0-0.1,0-0.1,0-0.2L25.2,58.2z"/>
        <path id="XMLID_213_" class="st4" d="M33,120.1c0.1,0,0.2,0,0.4,0L22.1,95.8c-0.2,1.3-1.3,2.3-2.7,2.3c-0.5,0-1-0.2-1.5-0.4L29.2,122C30.1,120.9,31.4,120.1,33,120.1z"/>
        <path id="XMLID_210_" class="st5" d="M134.5,86.4c-5,0-9,4-9,9s4,9,9,9c5,0,9-4,9-9S139.5,86.4,134.5,86.4z M134.5,103.8c-4.7,0-8.4-3.8-8.4-8.4s3.8-8.4,8.4-8.4c4.7,0,8.4,3.8,8.4,8.4S139.2,103.8,134.5,103.8z"/>
        <path id="XMLID_207_" class="st5" d="M60.6,135.7c-3.9,0-7,3.1-7,7c0,3.9,3.1,7,7,7c3.9,0,7-3.1,7-7C67.6,138.9,64.4,135.7,60.6,135.7z M60.6,149.2c-3.6,0-6.4-2.9-6.4-6.4c0-3.6,2.9-6.4,6.4-6.4c3.6,0,6.4,2.9,6.4,6.4C67,146.3,64.1,149.2,60.6,149.2z"/>
        <path id="XMLID_204_" class="st5" d="M120.6,119.5c-2.9,0-5.3,2.4-5.3,5.3s2.4,5.3,5.3,5.3c2.9,0,5.3-2.4,5.3-5.3S123.5,119.5,120.6,119.5z M120.6,129.5c-2.6,0-4.7-2.1-4.7-4.7c0-2.6,2.1-4.7,4.7-4.7c2.6,0,4.7,2.1,4.7,4.7C125.3,127.4,123.2,129.5,120.6,129.5z"/>
        <path id="XMLID_201_" class="st5" d="M33,119.5c-2.9,0-5.3,2.4-5.3,5.3s2.4,5.3,5.3,5.3c2.9,0,5.3-2.4,5.3-5.3S35.9,119.5,33,119.5z M33,129.5c-2.6,0-4.7-2.1-4.7-4.7c0-2.6,2.1-4.7,4.7-4.7c2.6,0,4.7,2.1,4.7,4.7C37.6,127.4,35.6,129.5,33,129.5z"/>
        <path id="XMLID_191_" class="st5" d="M108.3,32.9c-2.9,0-5.3,2.4-5.3,5.3c0,2.9,2.4,5.3,5.3,5.3c2.9,0,5.3-2.4,5.3-5.3C113.6,35.3,111.2,32.9,108.3,32.9z M108.3,42.9c-2.6,0-4.7-2.1-4.7-4.7c0-2.6,2.1-4.7,4.7-4.7s4.7,2.1,4.7,4.7C113,40.8,110.9,42.9,108.3,42.9z"/>
        <path id="XMLID_142_" class="st5" d="M29.4,62.8c0-2.9-2.4-5.3-5.3-5.3c-2.9,0-5.3,2.4-5.3,5.3c0,2.9,2.4,5.3,5.3,5.3C27,68.1,29.4,65.7,29.4,62.8z M24.1,67.5c-2.6,0-4.7-2.1-4.7-4.7c0-2.6,2.1-4.7,4.7-4.7s4.7,2.1,4.7,4.7C28.8,65.4,26.7,67.5,24.1,67.5z"/>
        <path id="XMLID_133_" class="st5" d="M129.9,67.2c2.4,0,4.4-2,4.4-4.4c0-2.4-2-4.4-4.4-4.4c-2.4,0-4.4,2-4.4,4.4C125.5,65.2,127.5,67.2,129.9,67.2z M129.9,59c2.1,0,3.8,1.7,3.8,3.8c0,2.1-1.7,3.8-3.8,3.8c-2.1,0-3.8-1.7-3.8-3.8C126.1,60.7,127.8,59,129.9,59z"/>
        <path id="XMLID_128_" class="st5" d="M93.2,138.7c-2.2,0-4.1,1.8-4.1,4.1c0,2.2,1.8,4.1,4.1,4.1c2.2,0,4.1-1.8,4.1-4.1C97.3,140.5,95.5,138.7,93.2,138.7z M93.2,146.2c-1.9,0-3.5-1.6-3.5-3.5c0-1.9,1.6-3.5,3.5-3.5c1.9,0,3.5,1.6,3.5,3.5C96.7,144.6,95.1,146.2,93.2,146.2z"/>
        <path id="XMLID_124_" class="st5" d="M77,24.8c-2.2,0-4.1,1.8-4.1,4.1c0,2.2,1.8,4.1,4.1,4.1s4.1-1.8,4.1-4.1C81,26.6,79.2,24.8,77,24.8z M77,32.3c-1.9,0-3.5-1.6-3.5-3.5c0-1.9,1.6-3.5,3.5-3.5s3.5,1.6,3.5,3.5C80.5,30.8,78.9,32.3,77,32.3z"/>
        <path id="XMLID_121_" class="st5" d="M19.5,92.1c-1.8,0-3.3,1.5-3.3,3.3s1.5,3.3,3.3,3.3c1.8,0,3.3-1.5,3.3-3.3S21.3,92.1,19.5,92.1z M19.5,98.1c-1.5,0-2.7-1.2-2.7-2.7c0-1.5,1.2-2.7,2.7-2.7c1.5,0,2.7,1.2,2.7,2.7C22.2,96.9,21,98.1,19.5,98.1z"/>
        <path id="XMLID_117_" class="st2" d="M45.4,34.9c-1.8,0-3.3,1.5-3.3,3.3c0,1.8,1.5,3.3,3.3,3.3c1.8,0,3.3-1.5,3.3-3.3C48.7,36.4,47.2,34.9,45.4,34.9z M45.4,40.9c-1.5,0-2.7-1.2-2.7-2.7c0-1.5,1.2-2.7,2.7-2.7c1.5,0,2.7,1.2,2.7,2.7C48.1,39.7,46.9,40.9,45.4,40.9z"/>
        <path id="XMLID_112_" class="st5" d="M61.2,91.3c2.6,0,4.7,2.1,4.7,4.7c0,2.6-2.1,4.7-4.7,4.7c-2.6,0-4.7-2.1-4.7-4.7C56.5,93.4,58.6,91.3,61.2,91.3 M61.2,90.7c-2.9,0-5.3,2.4-5.3,5.3c0,2.9,2.4,5.3,5.3,5.3c2.9,0,5.3-2.4,5.3-5.3C66.5,93.1,64.1,90.7,61.2,90.7z"/>
    </g>
    <g id="XMLID_985_">
        <path id="XMLID_986_" d="M204.5,59.8c-3.2-4.5-8.9-6.7-14.7-6.7c-6.9,0-13.8,3.1-13.8,10.8c0,16.9,39.9,7.2,39.9,37.2c0,18.1-14.3,26.8-30.8,26.8c-10.5,0-20.7-3.2-27.6-11.4l11.3-10.9c3.7,5.6,10,8.8,16.6,8.8c6.9,0,14.7-3.8,14.7-11.5c0-18.4-39.9-7.8-39.9-37.9c0-17.3,15.4-25.4,31-25.4c8.8,0,17.6,2.5,24.1,8.7L204.5,59.8z"/>
        <path id="XMLID_988_" d="M298.8,95c0,20.3-14.6,33-33.8,33c-19.2,0-33.8-12.7-33.8-33V41.8h15v52.7c0,8.3,4.5,19.2,18.9,19.2c14.4,0,18.9-10.9,18.9-19.2V41.8h15V95z"/>
        <path id="XMLID_992_" d="M317.2,41.8h29.2c16.2,0,31.4,5.2,31.4,24.1c0,12.1-7,21-19.5,22.8l22.3,37.2h-18.1L343,90.2h-10.9v35.6h-15V41.8z M343.8,77.4c8.4,0,18.3-0.7,18.3-11.6c0-10-9.3-11.2-17-11.2h-12.9v22.8H343.8z"/>
        <path id="XMLID_995_" d="M392,41.8h29.2c16.2,0,31.4,5.2,31.4,24.1c0,12.1-7,21-19.5,22.8l22.3,37.2h-18.1l-19.5-35.6h-10.9v35.6h-15V41.8z M418.6,77.4c8.4,0,18.3-0.7,18.3-11.6c0-10-9.3-11.2-17-11.2h-12.9v22.8H418.6z"/>
        <path id="XMLID_1152_" d="M506.7,39.7c26.2-0.5,44.8,17.1,44.8,44.1c0,26.2-18.5,43.8-44.8,44.3c-25.9,0-44.4-17.6-44.4-43.8C462.3,57.2,480.8,39.7,506.7,39.7z M506.8,114.5c17.5,0,29-13.3,29-31.2c0-16.7-11.5-30-29-30c-17.3,0-28.9,13.3-28.9,30C478,101.2,489.5,114.5,506.8,114.5z"/>
        <path id="XMLID_1155_" d="M633.1,95c0,20.3-14.6,33-33.8,33c-19.2,0-33.8-12.7-33.8-33V41.8h15v52.7c0,8.3,4.5,19.2,18.9,19.2c14.4,0,18.9-10.9,18.9-19.2V41.8h15V95z"/>
        <path id="XMLID_1157_" d="M651.5,41.8h19.8l40.7,62.5h0.2V41.8h15v84.1h-19l-41.6-64.5h-0.2v64.5h-15V41.8z"/>
        <path id="XMLID_1159_" d="M746,41.8h33.1c22.1,0,42.8,13.5,42.8,42c0,28.7-24.3,42-44.5,42H746V41.8z M772.1,112.3c18.8,0,34.1-8.1,34.1-28.5c0-20.4-13.3-28.5-31.6-28.5H761v57H772.1z"/>
    </g>
</svg>
